<svg id="Livello_1" data-name="Livello 1" xmlns="http://www.w3.org/2000/svg" viewBox="0 0 423.32 536.66"><defs><style>.cls-1{fill:#822235;}</style></defs><path class="cls-1" d="M89.08,558a26.12,26.12,0,0,1-1.4-35.53,26.65,26.65,0,0,1,19.83-9.16,26.17,26.17,0,0,1,10.29,2l-1.86,4.37a21.22,21.22,0,0,0-8.35-1.68,21.47,21.47,0,1,0,0,42.93,21.5,21.5,0,0,0,7-1.14V541.71H103.83V537h15.44v26l-1.43.61a24.49,24.49,0,0,1-7.31,1.94Q97.75,566.72,89.08,558Z" transform="translate(-81.38 -29.04)"/><path class="cls-1" d="M172.18,513.78v46.69h23.89v4.73H167.46V513.78Z" transform="translate(-81.38 -29.04)"/><path class="cls-1" d="M280.17,513.78V565.2h-4.69V552.34H255.07l-8.13,12.86h-5.58l32.51-51.42ZM258,547.61h17.44V520.08Z" transform="translate(-81.38 -29.04)"/><path class="cls-1" d="M330.4,565.2V513.78H343q12.29,0,20.46,10.07A23.33,23.33,0,0,1,368.56,536q1.4,12.9-7.33,21.61A24.78,24.78,0,0,1,343,565.2Zm4.69-4.69h7.72a20.77,20.77,0,0,0,13.47-4.68,20.51,20.51,0,0,0,7.78-16.34,21.24,21.24,0,0,0-6.46-15.16A20.21,20.21,0,0,0,343,518.47h-8Z" transform="translate(-81.38 -29.04)"/><path class="cls-1" d="M415.26,513.53H420V565.2h-4.76Z" transform="translate(-81.38 -29.04)"/><path class="cls-1" d="M472.19,513.78,504.7,565.2h-5.59L491,552.34H470.58V565.2h-4.7V513.78Zm-1.61,6.3v27.53H488Z" transform="translate(-81.38 -29.04)"/><path class="cls-1" d="M336.49,159.87v0l.17.24a1.32,1.32,0,0,0,.08.14l0,0,0,.08,0,.06a1.09,1.09,0,0,0-.1-.17A2.23,2.23,0,0,0,336.49,159.87Z" transform="translate(-81.38 -29.04)"/><path class="cls-1" d="M486.53,320.74c-4.36-8.38-10.47-15.74-16.41-23.13a285.1,285.1,0,0,0,5-46.26c.56-15.94.14-32.2-3.52-47.81-.16-.72-.35-1.45-.53-2.17.16-.57.34-1.13.48-1.7a182,182,0,0,0,5.26-39.75c.73-21.42.39-44-7-64.42A76.3,76.3,0,0,0,454.06,69a69.5,69.5,0,0,0-25.68-16.88C393,38.28,349,51.69,326.91,81.31c-9.2,12.33-13.81,28-15.49,43-.74,6.65-.8,14.56,3.13,20.39,2.85,4.24,6.89,6,11.35,6.74a42,42,0,0,0,.47,7.17,15.66,15.66,0,0,0,9.32,12c6.41,2.71,13.85,3.2,20.79,3.5,7.92.35,15.86.11,23.77-.25,15.14-.7,30.29-2.38,45.45-2.45,2.32,0,4.59.13,6.9.27h0l1,.16c1,.18,1.91.39,2.86.64s1.67.47,2.49.75l1.09.4.13.05.82.36a31.66,31.66,0,0,1,13.73,12.48,48.75,48.75,0,0,1,4.43,9c.71,1.9,1.34,3.83,1.91,5.77-3.13,10.18-7.72,19.75-11.89,29.59-4.44,10.46-8.13,21.72-7,33.16s6.71,21.33,13.53,30.5c1.33,1.79,2.72,3.57,4.14,5.35a222.33,222.33,0,0,1-17.36,48.47,213.86,213.86,0,0,1-19.24,32.42,159.38,159.38,0,0,1-25.49,26.9A210.88,210.88,0,0,1,367.14,429c-11.22,6.51-23.12,12.16-35.86,15.28-9.11,2.23-19.65,3.16-28.24-1.08-10-4.92-12-15.24-12.71-25.24-.67-8.79-.81-18.62,4.2-26.29,6.12-9.39,19.32-10.93,29.61-13,10.75-2.19,21.16-5.28,27.83-14.29,2.66-3.59,4.06-8.22,2.39-12.47-2.11-5.36-7.83-7.93-13.11-9.67-11-3.64-23.3-3.24-34.77-2.3-16.58,1.34-33,4.09-49.86,2.12a52.91,52.91,0,0,1-6.25-1.17c-2.19-.51-4.59-1.1-6-3a4.61,4.61,0,0,1-.44-.75,7.43,7.43,0,0,0-.23-.72c0-.08,0-.22-.06-.32a7.63,7.63,0,0,1,0-.83c0-.13.08-.66.11-.78.12-.42.24-.83.37-1.24a4.22,4.22,0,0,1,.65-1.4,27.38,27.38,0,0,1,3.14-4.51,83.64,83.64,0,0,1,9.46-9.07c2.93-2.47,6-4.8,8.88-7.28a25.54,25.54,0,0,1,4.77-3.77,4.68,4.68,0,0,1,4.55-.12c2.29.85,4.31,2.42,6.5,3.52a24.77,24.77,0,0,0,10,2.61,19.51,19.51,0,0,0,9.11-1.79c2.39-1.16,4.23-3,6.39-4.49,4.11-2.81,8.8.45,12.13,3.12,4.16,3.35,7.64,7.4,12,10.54,4,2.91,9.24,4.86,14.3,3.56,4.24-1.09,7-4.2,8.63-8,2.68-6.45,2-14,1.38-20.79-.8-8.42-1.7-17.73-8.4-24-9.44-8.77-24.25-5.18-35.75-3.53-10.26,1.47-25.31,2-28.84-9.84-1.56-5.23-.87-10.62-.39-16q.94-10.54,1.75-21.1,1.63-21.23,2.6-42.48,1-21.68,1.07-43.38c0-13.73-.51-27.43-.74-41.16-.21-12.15.29-24.67-3.05-36.51a38.45,38.45,0,0,0-21.42-24.61c-17.39-7.78-38.73-3.33-51.72,10.1-11.95,12.35-17,29.68-18.15,46.18a95.79,95.79,0,0,0,1.65,25.06c2.22,11.33,6.74,24.33.71,35.27-4.56,8.26-13.43,13.3-22.26,16.46-10.05,3.6-20.62,5-31.05,7.12-10.66,2.17-21.74,5.12-30.66,11.38A41.84,41.84,0,0,0,93.5,212.61c-3,21.26,8.89,41.87,20,59.31,3.26,5.09,11.62.42,8.34-4.7-5.73-9-11.31-18.19-15-28.13-3.5-9.29-5.7-19.55-2.93-29.3,6.11-21.43,30.34-25.95,49.9-29.51s43.07-9.85,51.43-29.44c5.18-12.12,1.55-25.16-1-37.43a88,88,0,0,1-1.69-23.74c.92-14.42,5.51-30.42,16.06-40.84a35.53,35.53,0,0,1,19.61-10c8.75-1.52,18.7.22,26.23,5.81C273.17,51.09,276,60.83,276.9,71c1.15,12.15.82,24.51,1.15,36.7.76,27.94.15,55.9-1.39,83.81q-1.14,20.79-2.92,41.53c-.93,11.07-3.76,24,2.86,34,7.14,10.82,21.95,11.88,33.93,10.4,6.63-.81,13.22-2.24,19.94-2.25,4.54,0,8.74.73,11.41,4,4.2,5.18,4.31,13.25,4.77,19.89a52.59,52.59,0,0,1-.06,9.88c0,.23-.1.72-.11.77-.09.43-.17.85-.27,1.27a19.09,19.09,0,0,1-.61,2,.9.9,0,0,0-.05.16,1.58,1.58,0,0,0-.1.16c-.19.33-.38.65-.58,1a.05.05,0,0,1,0,0c-.22.2-.59.51-.63.58l-.38.22,0,0a4.18,4.18,0,0,1-.61.13,8.56,8.56,0,0,1-1,0,11.75,11.75,0,0,1-5.12-2.31c-4-2.92-7.17-6.83-11.09-9.88-4.7-3.67-10.41-7.17-16.73-6.52a15,15,0,0,0-7.32,2.94c-1.81,1.31-3.55,3.12-5.68,3.93-5.71,2.19-10.4-1.87-15.19-4.09-5-2.33-10.22-2.8-15.18,0-3.81,2.17-6.93,5.62-10.36,8.26-2,1.56-4.06,3.14-6,4.87-5.92,5.39-15.67,13.55-15.57,23.2.13,13,15.88,15.16,26.18,16,12.19,1,24.46-.28,36.57-1.54,11.15-1.16,22.82-2.56,34-.83,4.4.68,10.26,1.68,13.72,4.64-.08-.07,1.1,1.22.65.66l.16.2s0,0,.08.18a2.48,2.48,0,0,1,.15.41c0,.2,0,.6,0,.73a8.16,8.16,0,0,1-2.1,3.85c-6.77,7.76-16.88,8.64-27,10.74-11.4,2.34-23,5.92-29.77,15.74-5.52,8-6.45,18.32-6.07,27.71.45,11,1.76,23.4,10.16,31.7,7.1,7,17.61,9.65,27.5,9.55,12-.12,23.74-4,34.58-8.63a199.55,199.55,0,0,0,33.6-18.75c20.57-13.93,38.51-31.06,51.6-51.85a243.54,243.54,0,0,0,29.5-66.89c8.49,10.88,16,22.4,16,36.51,0,7.26-2.1,14.47-7.33,19.28a19.82,19.82,0,0,1-8.83,4.55,30.18,30.18,0,0,1-12.28.11c-2.56-.45-5.21.68-5.94,3.26a4.67,4.67,0,0,0,3.37,5.72c10,1.79,20.35.8,28.57-5.45,7.25-5.52,10.81-14.06,11.82-22.72C494,340.3,491.31,329.93,486.53,320.74Zm-141.74-6.36c-.14.18-.31.34,0,0Zm103.86-146.9c-11.4-6.65-24.63-5.55-37.35-4.8-15.81.93-31.62,2.34-47.47,2.3-3.68,0-7.36-.1-11-.37-1.51-.11-3-.25-4.51-.42h-.13L347,164c-.75-.12-1.49-.25-2.23-.4-1.25-.25-2.48-.55-3.69-.92-.51-.16-1-.34-1.51-.52-.31-.14-.61-.27-.91-.43s-.75-.45-1.13-.65l-.06,0-.3-.26a2.07,2.07,0,0,1-.34-.39c.05.09.12.21.19.36-.06-.12-.15-.28-.23-.42l0-.05c.08.24-.17.11-.22-.26l0-.12c-.05-.07-.1-.16-.15-.22l.14.18c-.07-.37-.21-.74-.29-1.1a24.94,24.94,0,0,1-.53-2.71,35.82,35.82,0,0,1-.18-4.21c1.81,0,3.62-.12,5.37-.13l44.62-.31,22.07-.16c6.43,0,12.93.18,19.34-.38,5.61-.48,11.48-1.55,16.22-4.68a21.15,21.15,0,0,0,9.43-14.27c2-12.59-5.76-23.68-15.61-31.19a68.86,68.86,0,0,0-32.84-13.3c-10.62-1.4-21.84-1-31.84,3C353.11,98,337.66,114.48,330,132.83a54.23,54.23,0,0,0-3,9.54c-.26-.05-.53-.1-.8-.17s-.53-.16-.79-.25a4.37,4.37,0,0,1-.56-.26l-.63-.37-.09,0-.08-.08-.77-.73-.06-.06a15.61,15.61,0,0,1-1-1.7c-.07-.2-.44-1-.5-1.27-.25-.77-.41-1.54-.59-2.32,0-.14-.05-.29-.07-.43s-.1-.74-.11-.83c-.07-.87-.13-1.74-.15-2.62-.16-7.06,1.1-12.79,3-19.86,1.77-6.7,3.88-13.08,7.38-19.08C339.55,77.8,354,66.84,370,61.1c16.73-6,35-6.93,51.9-1.42,18.21,5.94,31.61,19.67,38.17,37.09,7.42,19.67,7.74,41.18,7.13,61.85a197.87,197.87,0,0,1-2.38,26.3C461,177.88,455.83,171.66,448.65,167.48Zm-111.8-25c.43-1.62.93-3.25,1.53-4.86a67.52,67.52,0,0,1,15-23c6.17-6.37,13.79-12.16,22-15.45,9.08-3.63,19.6-3.92,29.19-2.3,11,1.85,21.51,6.36,29.62,13.86,6.83,6.32,13.93,18.69,5.2,26.52-3.3,3-8.12,3.95-12.48,4.32-6.41.56-12.91.34-19.34.38l-43.18.31-22.07.15ZM452.41,267.37c-2.42-11.12,1.23-22.32,5.48-32.57,2.16-5.21,4.47-10.33,6.66-15.49.4,3.54.67,7.12.85,10.93a305.25,305.25,0,0,1-1.61,46.24q-.59,5.5-1.49,11C457.87,281.3,454,274.71,452.41,267.37Z" transform="translate(-81.38 -29.04)"/></svg>